<svg width="194" height="32" viewBox="0 0 194 32" fill="none" xmlns="http://www.w3.org/2000/svg">
<path d="M184.373 31.5584V30.7168L189.822 10.3723H187.739C187.066 10.3723 186.554 10.5617 186.203 10.9404C185.853 11.3191 185.614 11.8941 185.488 12.6655C185.362 13.437 185.299 14.4118 185.299 15.5899H184.499V9.53076H193.083V10.3723L187.634 30.7168H189.591C190.32 30.7168 190.874 30.5415 191.253 30.1909C191.631 29.8262 191.884 29.2511 192.01 28.4657C192.15 27.6662 192.221 26.6143 192.221 25.3099H193.062V31.5584H184.373Z" fill="#151E1A"/>
<path d="M177.049 32C176.039 32 175.169 31.6915 174.44 31.0743C173.711 30.4432 173.114 29.5876 172.652 28.5076C172.189 27.4276 171.852 26.2003 171.642 24.8258C171.431 23.4373 171.326 21.9926 171.326 20.4918C171.326 18.6124 171.48 16.9783 171.789 15.5898C172.098 14.1872 172.518 13.0301 173.051 12.1184C173.584 11.1927 174.187 10.5054 174.861 10.0566C175.534 9.59373 176.235 9.3623 176.965 9.3623C177.806 9.3623 178.549 9.6288 179.195 10.1618C179.84 10.6807 180.373 11.389 180.794 12.2867C181.228 13.1703 181.551 14.1732 181.761 15.2952C181.972 16.4173 182.077 17.5744 182.077 18.7666C182.077 19.0331 182.077 19.2926 182.077 19.5451C182.077 19.7835 182.07 20.036 182.056 20.3025H174.23V19.4609H178.942C178.942 17.5394 178.886 15.8913 178.774 14.5168C178.662 13.1282 178.458 12.0623 178.164 11.3189C177.883 10.5755 177.484 10.2039 176.965 10.2039C176.46 10.2039 176.025 10.5615 175.66 11.2768C175.295 11.9922 175.015 13.0792 174.819 14.5378C174.622 15.9825 174.524 17.8199 174.524 20.05C174.524 21.5508 174.552 22.9674 174.608 24.2998C174.678 25.6183 174.812 26.7894 175.008 27.8133C175.204 28.8232 175.499 29.6156 175.892 30.1907C176.284 30.7658 176.803 31.0533 177.448 31.0533C178.444 31.0533 179.23 30.7798 179.805 30.2328C180.38 29.6858 180.766 29.1107 180.962 28.5076L181.677 28.9494C181.397 29.7629 180.857 30.4782 180.057 31.0954C179.272 31.6985 178.269 32 177.049 32Z" fill="#151E1A"/>
<path d="M158.682 31.5582V30.7167H160.659V10.3722H158.682V9.53062H163.731L163.794 11.929C163.822 11.7467 163.948 11.4522 164.173 11.0454C164.411 10.6387 164.741 10.26 165.162 9.90931C165.596 9.54464 166.115 9.3623 166.718 9.3623C167.42 9.3623 167.995 9.61477 168.444 10.1197C168.892 10.6106 169.229 11.2698 169.454 12.0973C169.692 12.9249 169.811 13.8436 169.811 14.8534C169.811 15.5267 169.692 16.0526 169.454 16.4313C169.229 16.796 168.899 16.9783 168.465 16.9783C168.044 16.9783 167.714 16.81 167.476 16.4734C167.251 16.1228 167.139 15.6739 167.139 15.1269C167.139 14.7763 167.195 14.4677 167.308 14.2012C167.434 13.9207 167.553 13.6472 167.665 13.3807C167.777 13.1002 167.834 12.7846 167.834 12.434C167.834 11.7046 167.7 11.1716 167.434 10.835C167.181 10.4984 166.852 10.3301 166.445 10.3301C165.926 10.3301 165.463 10.5826 165.056 11.0875C164.664 11.5924 164.355 12.2236 164.131 12.981C163.92 13.7384 163.815 14.4958 163.815 15.2532V30.7167H165.856V31.5582H158.682Z" fill="#151E1A"/>
<path d="M149.885 32C149.086 32 148.356 31.8107 147.697 31.432C147.038 31.0533 146.519 30.4712 146.14 29.6858C145.762 28.9003 145.572 27.9045 145.572 26.6983C145.572 25.3658 145.818 24.2648 146.309 23.3952C146.814 22.5256 147.431 21.7962 148.16 21.2071C148.903 20.604 149.647 20.071 150.39 19.6082C151.134 19.1313 151.751 18.6334 152.242 18.1144C152.746 17.5955 152.999 16.9643 152.999 16.2209C152.999 15.155 152.929 14.1732 152.789 13.2755C152.648 12.3779 152.403 11.6625 152.052 11.1296C151.702 10.5826 151.204 10.3091 150.558 10.3091C149.885 10.3091 149.296 10.5545 148.791 11.0454C148.3 11.5363 148.055 12.1114 148.055 12.7706C148.055 13.0932 148.104 13.3737 148.202 13.6121C148.314 13.8506 148.413 14.096 148.497 14.3485C148.595 14.5869 148.644 14.8815 148.644 15.2321C148.644 15.7371 148.532 16.1578 148.307 16.4945C148.083 16.8171 147.746 16.9783 147.297 16.9783C146.849 16.9783 146.512 16.789 146.288 16.4103C146.063 16.0316 145.951 15.5056 145.951 14.8324C145.951 13.8366 146.161 12.9249 146.582 12.0973C147.017 11.2698 147.62 10.6106 148.391 10.1197C149.177 9.61477 150.075 9.3623 151.084 9.3623C152.08 9.3623 152.957 9.61477 153.714 10.1197C154.472 10.6106 155.068 11.382 155.503 12.434C155.937 13.4719 156.155 14.8254 156.155 16.4945V29.244C156.155 29.819 156.225 30.2188 156.365 30.4432C156.519 30.6676 156.723 30.7798 156.975 30.7798C157.172 30.7798 157.354 30.7377 157.522 30.6536C157.705 30.5554 157.838 30.4642 157.922 30.3801L158.364 31.0954C158.21 31.2637 157.922 31.425 157.501 31.5793C157.08 31.7476 156.576 31.8317 155.986 31.8317C155.468 31.8317 155.005 31.7476 154.598 31.5793C154.191 31.411 153.869 31.1585 153.63 30.8219C153.392 30.4853 153.258 30.0715 153.23 29.5806C153.16 29.8751 152.999 30.2117 152.746 30.5904C152.494 30.9691 152.136 31.2987 151.674 31.5793C151.211 31.8598 150.615 32 149.885 32ZM150.832 30.6746C151.253 30.6746 151.624 30.5203 151.947 30.2117C152.284 29.8892 152.543 29.5034 152.725 29.0546C152.908 28.6058 152.999 28.185 152.999 27.7923V18.2196C152.957 18.6124 152.725 19.0331 152.305 19.482C151.884 19.9168 151.4 20.4287 150.853 21.0178C150.32 21.5929 149.85 22.3082 149.443 23.1638C149.037 24.0053 148.833 25.0362 148.833 26.2565C148.833 27.659 148.981 28.746 149.275 29.5175C149.584 30.2889 150.103 30.6746 150.832 30.6746Z" fill="#151E1A"/>
<path d="M138.141 31.6425L134.123 10.3723H132.461V9.53076H139.004V10.3723H137.489L139.888 24.7418L142.286 10.3723H140.792V9.53076H144.79V10.3723H143.233L139.404 31.6425H138.141Z" fill="#151E1A"/>
<path d="M125.281 31.5582V30.7166H127.091V0.841553H125.281V0H130.225V30.7166H132.035V31.5582H125.281Z" fill="#151E1A"/>
<path d="M110.781 31.5582V30.7166H112.612L116.861 2.04077H118.25L122.647 30.7166H124.583V31.5582H117.387V30.7166H119.218L116.378 9.88824H116.483L113.516 30.7166H115.178V31.5582H110.781ZM114 24.7206V23.9001H118.923V24.7206H114Z" fill="#151E1A"/>
<path fill-rule="evenodd" clip-rule="evenodd" d="M101.021 17.4563C100.917 17.4623 100.811 17.4701 100.704 17.4798C99.2897 17.607 98.1486 18.054 97.2806 18.8206C96.426 19.5861 96.0544 20.5875 96.1657 21.825C96.277 23.0624 96.8039 23.9381 97.7464 24.4521C98.6305 24.9342 99.7221 25.1343 101.021 25.0522V24.9309C100.1 24.9734 99.3287 24.755 98.7082 24.2758C98.037 23.7573 97.6479 22.9042 97.541 21.7162C97.4333 20.5184 97.6863 19.5575 98.3002 18.8337C98.9131 18.1 99.7315 17.687 100.755 17.5949C100.845 17.5868 100.934 17.5811 101.021 17.5777V17.4563Z" fill="#4F6A5C"/>
<path fill-rule="evenodd" clip-rule="evenodd" d="M104.567 20.2099C105.137 22.938 103.387 25.6115 100.659 26.1812C97.931 26.7509 95.2575 25.0011 94.6878 22.273C94.1181 19.5449 95.8679 16.8714 98.596 16.3017C101.324 15.732 103.998 17.4817 104.567 20.2099ZM100.315 24.5346C102.134 24.1548 103.301 22.3725 102.921 20.5537C102.541 18.7349 100.759 17.5684 98.9399 17.9483C97.1211 18.3281 95.9546 20.1104 96.3344 21.9291C96.7142 23.7479 98.4965 24.9144 100.315 24.5346Z" fill="#151E1A"/>
<path d="M72.8223 31.5582V30.7167H74.821V10.3722H72.8223V9.53062H77.9347V12.2867C78.0609 11.8799 78.2713 11.4522 78.5659 11.0033C78.8604 10.5405 79.2461 10.1548 79.723 9.8462C80.2139 9.5236 80.803 9.3623 81.4902 9.3623C82.1495 9.3623 82.7806 9.5236 83.3837 9.8462C84.0009 10.1688 84.5058 10.7929 84.8985 11.7187C85.3053 12.6303 85.5087 13.9908 85.5087 15.8002V30.7167H87.4442V31.5582H80.6697V30.7167H82.3528V16.1789C82.3528 14.2433 82.1986 12.8407 81.89 11.9711C81.5814 11.0875 81.0905 10.6457 80.4173 10.6457C80.0947 10.6457 79.7861 10.7859 79.4916 11.0664C79.197 11.347 78.9375 11.7116 78.7131 12.1605C78.4887 12.5953 78.3064 13.0651 78.1661 13.5701C78.0399 14.061 77.9768 14.5238 77.9768 14.9586V30.7167H79.6599V31.5582H72.8223Z" fill="#4F6A5C"/>
<path d="M66.3378 32C65.3279 32 64.4583 31.6915 63.729 31.0743C62.9996 30.4432 62.4035 29.5876 61.9407 28.5076C61.4778 27.4276 61.1412 26.2003 60.9308 24.8258C60.7204 23.4373 60.6152 21.9926 60.6152 20.4918C60.6152 18.6124 60.7695 16.9783 61.0781 15.5898C61.3867 14.1872 61.8074 13.0301 62.3404 12.1184C62.8734 11.1927 63.4765 10.5054 64.1498 10.0566C64.823 9.59373 65.5243 9.3623 66.2536 9.3623C67.0952 9.3623 67.8386 9.6288 68.4837 10.1618C69.1289 10.6807 69.6619 11.389 70.0827 12.2867C70.5175 13.1703 70.8401 14.1732 71.0505 15.2952C71.2609 16.4173 71.3661 17.5744 71.3661 18.7666C71.3661 19.0331 71.3661 19.2926 71.3661 19.5451C71.3661 19.7835 71.359 20.036 71.345 20.3025H63.5186V19.4609H68.2313C68.2313 17.5394 68.1752 15.8913 68.063 14.5168C67.9508 13.1282 67.7474 12.0623 67.4528 11.3189C67.1723 10.5755 66.7726 10.2039 66.2536 10.2039C65.7487 10.2039 65.3139 10.5615 64.9492 11.2768C64.5846 11.9922 64.304 13.0792 64.1077 14.5378C63.9113 15.9825 63.8131 17.8199 63.8131 20.05C63.8131 21.5508 63.8412 22.9674 63.8973 24.2998C63.9674 25.6183 64.1007 26.7894 64.297 27.8133C64.4934 28.8232 64.7879 29.6156 65.1807 30.1907C65.5734 30.7658 66.0923 31.0533 66.7375 31.0533C67.7334 31.0533 68.5188 30.7798 69.0939 30.2328C69.6689 29.6858 70.0546 29.1107 70.251 28.5076L70.9663 28.9494C70.6858 29.7629 70.1458 30.4782 69.3463 31.0954C68.5609 31.6985 67.558 32 66.3378 32Z" fill="#4F6A5C"/>
<path d="M38.4922 31.5581V30.7166H40.3436V10.3721H38.4922V9.53053H43.4573V12.5812C43.5275 12.2165 43.6888 11.7887 43.9412 11.2978C44.1937 10.7929 44.5654 10.351 45.0563 9.97235C45.5612 9.59365 46.1994 9.4043 46.9708 9.4043C47.7563 9.4043 48.4015 9.60767 48.9064 10.0144C49.4113 10.4071 49.79 10.891 50.0425 11.4661C50.2949 12.0412 50.4282 12.5882 50.4422 13.1071C50.5544 12.5461 50.7648 11.9851 51.0734 11.424C51.382 10.849 51.8027 10.3721 52.3357 9.99338C52.8827 9.60066 53.5489 9.4043 54.3344 9.4043C55.5406 9.4043 56.4523 9.90222 57.0694 10.8981C57.7006 11.8939 58.0162 13.1702 58.0162 14.7271V30.7166H59.7414V31.5581H53.2404V30.7166H54.8604V17.1676C54.8604 15.8352 54.8253 14.6991 54.7552 13.7593C54.6991 12.8196 54.5448 12.0973 54.2923 11.5923C54.0539 11.0874 53.6612 10.8349 53.1141 10.8349C52.6232 10.8349 52.1955 11.1014 51.8308 11.6344C51.4801 12.1534 51.2066 12.7986 51.0103 13.57C50.8139 14.3274 50.7087 15.0778 50.6947 15.8211V30.7166H52.3147V31.5581H45.961V30.7166H47.5389V17.1676C47.5389 15.1759 47.4477 13.6261 47.2654 12.518C47.083 11.396 46.5851 10.8349 45.7716 10.8349C45.2807 10.8349 44.8669 11.1084 44.5303 11.6554C44.1937 12.1884 43.9412 12.8406 43.7729 13.6121C43.6046 14.3835 43.5134 15.1268 43.4994 15.8422V30.7166H45.0773V31.5581H38.4922Z" fill="#4F6A5C"/>
<path d="M26.25 31.5582V30.7167H28.2276V10.3722H26.25V9.53062H31.2993L31.3624 11.929C31.3905 11.7467 31.5167 11.4522 31.7411 11.0454C31.9796 10.6387 32.3092 10.26 32.7299 9.90931C33.1647 9.54464 33.6837 9.3623 34.2868 9.3623C34.9881 9.3623 35.5632 9.61477 36.012 10.1197C36.4608 10.6106 36.7974 11.2698 37.0219 12.0973C37.2603 12.9249 37.3795 13.8436 37.3795 14.8534C37.3795 15.5267 37.2603 16.0526 37.0219 16.4313C36.7974 16.796 36.4678 16.9783 36.033 16.9783C35.6123 16.9783 35.2827 16.81 35.0442 16.4734C34.8198 16.1228 34.7076 15.6739 34.7076 15.1269C34.7076 14.7763 34.7637 14.4677 34.8759 14.2012C35.0021 13.9207 35.1214 13.6472 35.2336 13.3807C35.3458 13.1002 35.4019 12.7846 35.4019 12.434C35.4019 11.7046 35.2686 11.1716 35.0021 10.835C34.7497 10.4984 34.4201 10.3301 34.0133 10.3301C33.4944 10.3301 33.0315 10.5826 32.6248 11.0875C32.232 11.5924 31.9235 12.2236 31.699 12.981C31.4887 13.7384 31.3835 14.4958 31.3835 15.2532V30.7167H33.4242V31.5582H26.25Z" fill="#4F6A5C"/>
<path d="M17.102 32C16.3025 32 15.5732 31.8107 14.914 31.432C14.2548 31.0533 13.7358 30.4712 13.3571 29.6858C12.9784 28.9003 12.7891 27.9045 12.7891 26.6983C12.7891 25.3658 13.0345 24.2648 13.5254 23.3952C14.0304 22.5256 14.6475 21.7962 15.3768 21.2071C16.1202 20.604 16.8636 20.071 17.6069 19.6082C18.3503 19.1313 18.9675 18.6334 19.4584 18.1144C19.9633 17.5955 20.2158 16.9643 20.2158 16.2209C20.2158 15.155 20.1456 14.1732 20.0054 13.2755C19.8651 12.3779 19.6197 11.6625 19.269 11.1296C18.9184 10.5826 18.4204 10.3091 17.7753 10.3091C17.102 10.3091 16.5129 10.5545 16.008 11.0454C15.5171 11.5363 15.2716 12.1114 15.2716 12.7706C15.2716 13.0932 15.3207 13.3737 15.4189 13.6121C15.5311 13.8506 15.6293 14.096 15.7135 14.3485C15.8116 14.5869 15.8607 14.8815 15.8607 15.2321C15.8607 15.7371 15.7485 16.1578 15.5241 16.4945C15.2997 16.8171 14.9631 16.9783 14.5142 16.9783C14.0654 16.9783 13.7288 16.789 13.5044 16.4103C13.28 16.0316 13.1678 15.5056 13.1678 14.8324C13.1678 13.8366 13.3781 12.9249 13.7989 12.0973C14.2337 11.2698 14.8368 10.6106 15.6083 10.1197C16.3937 9.61477 17.2914 9.3623 18.3012 9.3623C19.2971 9.3623 20.1737 9.61477 20.9311 10.1197C21.6885 10.6106 22.2846 11.382 22.7194 12.434C23.1542 13.4719 23.3716 14.8254 23.3716 16.4945V29.244C23.3716 29.819 23.4417 30.2188 23.582 30.4432C23.7362 30.6676 23.9396 30.7798 24.1921 30.7798C24.3884 30.7798 24.5708 30.7377 24.7391 30.6536C24.9214 30.5554 25.0547 30.4642 25.1388 30.3801L25.5806 31.0954C25.4264 31.2637 25.1388 31.425 24.7181 31.5793C24.2973 31.7476 23.7923 31.8317 23.2033 31.8317C22.6843 31.8317 22.2215 31.7476 21.8147 31.5793C21.408 31.411 21.0854 31.1585 20.8469 30.8219C20.6085 30.4853 20.4752 30.0715 20.4472 29.5806C20.3771 29.8751 20.2158 30.2117 19.9633 30.5904C19.7108 30.9691 19.3532 31.2987 18.8903 31.5793C18.4275 31.8598 17.8314 32 17.102 32ZM18.0488 30.6746C18.4695 30.6746 18.8412 30.5203 19.1638 30.2117C19.5004 29.8892 19.7599 29.5034 19.9423 29.0546C20.1246 28.6058 20.2158 28.185 20.2158 27.7923V18.2196C20.1737 18.6124 19.9423 19.0331 19.5215 19.482C19.1007 19.9168 18.6168 20.4287 18.0698 21.0178C17.5368 21.5929 17.067 22.3082 16.6602 23.1638C16.2535 24.0053 16.0501 25.0362 16.0501 26.2565C16.0501 27.659 16.1973 28.746 16.4919 29.5175C16.8005 30.2889 17.3194 30.6746 18.0488 30.6746Z" fill="#4F6A5C"/>
<path d="M6.69034 31.979C4.72671 31.979 3.12075 30.6957 1.87245 28.1289C0.624151 25.5622 0 21.8103 0 16.8732C0 15.0639 0.133246 13.2615 0.399737 11.4662C0.680254 9.65689 1.10103 8.01587 1.66206 6.54315C2.2231 5.05641 2.9314 3.87122 3.78698 2.9876C4.65659 2.08994 5.67346 1.64111 6.83761 1.64111C7.66513 1.64111 8.37344 1.92163 8.96252 2.48266C9.56564 3.0437 10.0285 3.75201 10.3511 4.60758C10.6737 5.44913 10.835 6.2977 10.835 7.15327C10.835 7.85457 10.7228 8.38755 10.4984 8.75222C10.2739 9.10287 9.93732 9.27819 9.48849 9.27819C8.99759 9.27819 8.63993 9.1169 8.41552 8.7943C8.20513 8.47171 8.09993 8.01587 8.09993 7.42678C8.09993 7.02003 8.16305 6.66938 8.28928 6.37484C8.42954 6.0803 8.56279 5.77874 8.68902 5.47017C8.82928 5.1616 8.89941 4.78992 8.89941 4.35512C8.89941 3.86421 8.74512 3.45045 8.43655 3.11383C8.12799 2.76318 7.77033 2.58786 7.36358 2.58786C6.80254 2.58786 6.30462 2.90344 5.86982 3.53461C5.43502 4.15174 5.06334 4.98628 4.75477 6.03822C4.4462 7.07613 4.18672 8.22625 3.97633 9.48858C3.77997 10.7369 3.6327 12.0062 3.53452 13.2966C3.43634 14.573 3.38725 15.7511 3.38725 16.8311C3.38725 18.3599 3.44335 19.8327 3.55556 21.2493C3.66776 22.6519 3.82205 23.9492 4.01841 25.1414C4.2288 26.3336 4.48126 27.3786 4.77581 28.2762C5.08437 29.1598 5.42801 29.8471 5.80671 30.338C6.19943 30.8289 6.62722 31.0744 7.09007 31.0744C7.62306 31.0744 8.09993 30.885 8.52071 30.5063C8.95551 30.1136 9.32018 29.6367 9.61473 29.0757C9.90927 28.5147 10.1267 27.9677 10.2669 27.4347L11.0454 27.8554C10.7929 28.5848 10.4633 29.265 10.0565 29.8962C9.64979 30.5133 9.1659 31.0183 8.60487 31.411C8.05786 31.7897 7.41968 31.979 6.69034 31.979Z" fill="#4F6A5C"/>
</svg>
